<svg xmlns="http://www.w3.org/2000/svg" viewBox="0 0 88 88" fill="none">
  <defs><linearGradient id="bg" x1="12" y1="0" x2="76" y2="88" gradientUnits="userSpaceOnUse"><stop stop-color="#f8fcff"/><stop offset="1" stop-color="#e7f3ff"/></linearGradient><clipPath id="tile"><rect width="88" height="88" rx="22"/></clipPath></defs>
  <g clip-path="url(#tile)"><rect width="88" height="88" fill="url(#bg)"/><path d="M0 0h39v32H0Z" fill="#89eb9b"/><path d="M53 0h35v39H53Z" fill="#45cf86"/><path d="M0 48h28v40H0Z" fill="#a0e89d"/><path d="M46 53h42v35H46Z" fill="#90d6ff"/><path d="M0 39h88M39 0v88" stroke="#fff" stroke-width="9"/><path d="m4 85 77-63" stroke="#fff" stroke-width="12"/><path d="m4 85 77-63" stroke="#ffcb45" stroke-width="5"/><path d="M60 14a16 16 0 0 0-16 16c0 13 16 28 16 28s16-15 16-28a16 16 0 0 0-16-16Z" fill="#fa4c60"/><circle cx="60" cy="30" r="6" fill="#fff"/></g>
</svg>
